<svg preserveAspectRatio="none" overflow="visible" style="display: block;" width="145.564" height="24.7936" viewBox="0 0 145.564 24.7936" fill="none" xmlns="http://www.w3.org/2000/svg">
<g id="Group">
<path id="Vector" d="M12.1971 21.2643C15.3725 21.2643 17.6576 19.6761 19.0227 16.5291L22.8806 18.0585C21.9013 20.2937 20.5065 21.9996 18.6666 23.1172C16.8266 24.2348 14.6602 24.7936 12.1377 24.7936C9.61521 24.7936 7.38947 24.2936 5.5792 23.2936C3.76893 22.2937 2.37412 20.8525 1.42447 18.9996C0.474824 17.1173 0 14.8821 0 12.2939C0 9.70569 0.474829 7.44103 1.3948 5.61753C2.31478 3.79404 3.6799 2.41172 5.46049 1.44115C7.24108 0.470579 9.40748 0 11.9893 0C14.7493 0 17.0344 0.558812 18.7853 1.64703C20.5659 2.73524 21.8123 4.35285 22.5839 6.47046L18.5479 7.61749C18.1027 6.35281 17.3014 5.35283 16.1441 4.61755C14.9867 3.91169 13.6216 3.52934 12.0487 3.52934C9.61521 3.52934 7.74559 4.29403 6.46949 5.794C5.16372 7.29397 4.54051 9.4704 4.54051 12.2939C4.54051 14.1762 4.83728 15.7938 5.46049 17.1173C6.0837 18.4408 6.94432 19.4702 8.07203 20.1761C9.19974 20.8819 10.5945 21.2349 12.2267 21.2349L12.1971 21.2643Z" fill="white"/>
<path id="Vector_2" d="M52.1119 20.9702V24.4701H34.8105V0.352943H39.3213V20.9702H52.1119Z" fill="white"/>
<path id="Vector_3" d="M76.6246 0.352943H71.3719L62.1424 24.4701H66.683C66.683 24.4701 73.8647 4.1764 73.9834 3.67641C74.1615 4.26463 81.2838 24.4701 81.2838 24.4701H85.765L76.6246 0.352943Z" fill="white"/>
<path id="Vector_4" d="M136.423 0.352943H131.171L121.941 24.4701H126.482C126.482 24.4701 133.664 4.1764 133.782 3.67641C133.96 4.26463 141.083 24.4701 141.083 24.4701H145.564L136.423 0.352943Z" fill="white"/>
<path id="Vector_5" d="M115.472 0.352943L106.213 24.4407H101.613L92.3241 0.352943H97.0427L102.622 16.3232C102.83 16.882 103.037 17.5585 103.245 18.2938C103.453 19.029 103.69 19.8525 103.957 20.7643C104.284 19.5878 104.551 18.6467 104.759 17.9702C104.966 17.2938 105.115 16.735 105.263 16.3232L110.813 0.352943H115.501H115.472Z" fill="white"/>
</g>
</svg>
